<?xml version="1.0" encoding="UTF-8"?>
<svg version="1.1" xmlns="http://www.w3.org/2000/svg" width="256" height="256">
<path d="M0 0 C14.75177004 11.8274924 23.84411962 25.87827833 26 45 C26.125 48.6875 26.125 48.6875 26 51 C27.11375 50.9175 28.2275 50.835 29.375 50.75 C37.05952541 50.75 43.95675667 54.50270264 50 59 C50.80695313 59.59941406 51.61390625 60.19882813 52.4453125 60.81640625 C60.86586906 68.01379328 65.03577574 79.27626543 66.37890625 90.03515625 C66.87212539 102.11107 62.86343182 112.90644716 55 122 C47.53692987 130.01327756 38.20698992 135.64002459 27.06729507 136.12863445 C25.4325152 136.13114822 25.4325152 136.13114822 23.76470947 136.13371277 C22.50871948 136.13797775 21.25272949 136.14224274 19.9586792 136.14663696 C18.57434079 136.14628748 17.1900024 136.14582596 15.80566406 136.14526367 C14.34171462 136.14825725 12.87776598 136.15166024 11.41381836 136.15544128 C7.44255819 136.16426658 3.47131957 136.16661882 -0.49994946 136.16725707 C-2.98371542 136.16796856 -5.46747593 136.17010479 -7.95124054 136.17275429 C-16.62407274 136.18200378 -25.29688959 136.18608979 -33.96972656 136.18530273 C-42.0409208 136.18470248 -50.11204809 136.19524513 -58.18322539 136.2110464 C-65.12269076 136.22414558 -72.06213432 136.22948561 -79.00161195 136.22884732 C-83.14172104 136.22859298 -87.28177065 136.2314089 -91.42186737 136.24202538 C-95.31904254 136.2517461 -99.21610187 136.25175844 -103.11328125 136.24450874 C-104.53823263 136.24346773 -105.96319137 136.24579686 -107.38813019 136.2518692 C-123.26446244 136.31510677 -134.98523157 133.53555627 -146.7421875 122.38671875 C-156.36293781 112.21668685 -160.43179392 100.13418861 -160.27734375 86.28515625 C-159.28953309 74.58446941 -154.25920167 63.6917371 -145.6875 55.6875 C-135.27307302 47 -135.27307302 47 -129 47 C-128.938125 46.01 -128.87625 45.02 -128.8125 44 C-127.81929939 37.08956192 -123.16237927 31.44204728 -118 27 C-109.13086647 20.4246079 -101.82404493 19.3982355 -91 21 C-89.3307296 21.32003943 -87.66311937 21.64939646 -86 22 C-85.5875 21.29875 -85.175 20.5975 -84.75 19.875 C-75.6545738 4.9325141 -63.75752817 -3.79419536 -47 -9 C-31.08608022 -12.26599399 -13.37050813 -9.49699327 0 0 Z M-70.81640625 16.2890625 C-75.0092722 21.49451683 -81 29.17072079 -81 36 C-81.83402344 35.566875 -82.66804688 35.13375 -83.52734375 34.6875 C-91.34882884 30.81707439 -97.05576682 28.09712048 -105.5625 30.8203125 C-112.15430294 33.62575244 -116.06859056 37.46070202 -119 44 C-119.95061327 47.31330257 -120.58587262 50.57987909 -121 54 C-121.54527344 54.14695313 -122.09054688 54.29390625 -122.65234375 54.4453125 C-131.79202999 57.16378328 -139.65266396 61.94639024 -145 70 C-150.35423037 80.12498692 -151.77908803 90.03459294 -148.4375 101.1875 C-144.78564542 110.98984651 -138.12330525 118.53986539 -128.69466496 123.11981297 C-120.87389538 126.24684029 -113.66171628 126.56476838 -105.32397461 126.50170898 C-103.8804624 126.50550071 -102.43695384 126.51100774 -100.99345398 126.51808167 C-97.10497074 126.53194127 -93.21693468 126.52093468 -89.32847667 126.50437045 C-85.24124426 126.49042694 -81.15403539 126.49699045 -77.06678772 126.50050354 C-70.20680614 126.50319806 -63.34700029 126.4897946 -56.48706055 126.46655273 C-48.57702355 126.43993714 -40.66727998 126.43820211 -32.75721353 126.4499411 C-25.11923307 126.46075154 -17.48135784 126.45450694 -9.8433857 126.44038582 C-6.60559132 126.43465534 -3.3678747 126.43468537 -0.13007927 126.43945122 C3.68765215 126.44425322 7.50506568 126.43398731 11.32273674 126.41249657 C12.71662194 126.40697251 14.11053797 126.40642267 15.50442505 126.41144943 C28.15178929 126.45131153 37.6613564 124.9271708 47 116 C54.37646452 108.09204349 56.63488925 99.92597741 56.34765625 89.2109375 C55.38587211 80.32794242 50.90552131 72.52817352 44.375 66.5 C35.68771152 59.74322007 26.67712332 59.58992556 16 60 C16.03480469 58.99582031 16.06960937 57.99164063 16.10546875 56.95703125 C16.50283603 40.63486931 13.51912818 26.18355628 2.0390625 13.84375 C-10.08473105 2.88123936 -23.96192003 -0.86587349 -39.87158203 -0.17919922 C-51.7761612 0.82309042 -62.7325671 7.84498096 -70.81640625 16.2890625 Z " fill="#000000" transform="translate(175,65)"/>
</svg>
